<?xml version="1.0" encoding="utf-8"?>
<!-- Generator: Adobe Illustrator 16.0.0, SVG Export Plug-In . SVG Version: 6.00 Build 0)  -->
<!DOCTYPE svg PUBLIC "-//W3C//DTD SVG 1.1//EN" "http://www.w3.org/Graphics/SVG/1.1/DTD/svg11.dtd">
<svg version="1.1" id="Layer_1" xmlns="http://www.w3.org/2000/svg" xmlns:xlink="http://www.w3.org/1999/xlink" x="0px" y="0px"
	 width="900px" height="400px" viewBox="0 0 900 400" enable-background="new 0 0 900 400" xml:space="preserve">
<path fill="#FFFFFF" d="M868.997,117.99h-5.79H26v5.896v5.896v141.434v5.896v5.896h837.207h5.79H875V117.99H868.997z
	 M37.793,271.217V129.783h825.414v141.434H37.793z"/>
<rect x="101" y="157.06" fill="none" width="699" height="86.94"/>
<text transform="matrix(1 0 0 1 101 177.5801)"><tspan x="0" y="0" fill="#FFFFFF" font-family="'OpenSans-Extrabold'" font-size="27">“La</tspan><tspan x="46.011" y="0" fill="#FFFFFF" font-family="'OpenSans-Extrabold'" font-size="27" letter-spacing="3"> </tspan><tspan x="56.999" y="0" fill="#FFFFFF" font-family="'OpenSans-Extrabold'" font-size="27">FORTUNA</tspan><tspan x="189.85" y="0" fill="#FFFFFF" font-family="'OpenSans-Extrabold'" font-size="27" letter-spacing="3"> </tspan><tspan x="200.837" y="0" fill="#FFFFFF" font-family="'OpenSans-Extrabold'" font-size="27">no</tspan><tspan x="236.129" y="0" fill="#FFFFFF" font-family="'OpenSans-Extrabold'" font-size="27" letter-spacing="3"> </tspan><tspan x="247.117" y="0" fill="#FFFFFF" font-family="'OpenSans-Extrabold'" font-size="27">es</tspan><tspan x="278.204" y="0" fill="#FFFFFF" font-family="'OpenSans-Extrabold'" font-size="27" letter-spacing="3"> </tspan><tspan x="289.191" y="0" fill="#FFFFFF" font-family="'OpenSans-Extrabold'" font-size="27">algo</tspan><tspan x="348.307" y="0" fill="#FFFFFF" font-family="'OpenSans-Extrabold'" font-size="27" letter-spacing="3"> </tspan><tspan x="359.295" y="0" fill="#FFFFFF" font-family="'OpenSans-Extrabold'" font-size="27">que</tspan><tspan x="411.436" y="0" fill="#FFFFFF" font-family="'OpenSans-Extrabold'" font-size="27" letter-spacing="3"> </tspan><tspan x="422.423" y="0" fill="#FFFFFF" font-family="'OpenSans-Extrabold'" font-size="27">adquirimos.</tspan><tspan x="588.693" y="0" fill="#FFFFFF" font-family="'OpenSans-Extrabold'" font-size="27" letter-spacing="3"> </tspan><tspan x="599.681" y="0" fill="#FFFFFF" font-family="'OpenSans-Extrabold'" font-size="27">Es</tspan><tspan x="628.896" y="0" fill="#FFFFFF" font-family="'OpenSans-Extrabold'" font-size="27" letter-spacing="3"> </tspan><tspan x="639.883" y="0" fill="#FFFFFF" font-family="'OpenSans-Extrabold'" font-size="27">algo </tspan><tspan x="167.922" y="32.399" fill="#FFFFFF" font-family="'OpenSans-Extrabold'" font-size="27">con lo cual sintonizamos”.</tspan><tspan x="249.516" y="64.8" fill="#FFFFFF" font-family="'OpenSans-Extrabold'" font-size="27">- Wayne Dyer -</tspan></text>
</svg>
