<?xml version="1.0" encoding="utf-8"?>
<!-- Generator: Adobe Illustrator 16.0.0, SVG Export Plug-In . SVG Version: 6.00 Build 0)  -->
<!DOCTYPE svg PUBLIC "-//W3C//DTD SVG 1.1//EN" "http://www.w3.org/Graphics/SVG/1.1/DTD/svg11.dtd">
<svg version="1.1" id="Layer_1" xmlns="http://www.w3.org/2000/svg" xmlns:xlink="http://www.w3.org/1999/xlink" x="0px" y="0px"
	 width="900px" height="400px" viewBox="0 0 900 400" enable-background="new 0 0 900 400" xml:space="preserve">
<path fill="#FFFFFF" d="M868.997,117.99h-5.79H26v5.896v5.896v141.434v5.896v5.896h837.207h5.79H875V117.99H868.997z
	 M37.793,271.217V129.783h825.414v141.434H37.793z"/>
<rect x="69" y="154.06" fill="none" width="763" height="86.94"/>
<text transform="matrix(1 0 0 1 69 172.2998)"><tspan x="0" y="0" fill="#FFFFFF" font-family="'OpenSans-Extrabold'" font-size="24">“No</tspan><tspan x="47.285" y="0" fill="#FFFFFF" font-family="'OpenSans-Extrabold'" font-size="24"> </tspan><tspan x="54.459" y="0" fill="#FFFFFF" font-family="'OpenSans-Extrabold'" font-size="24">te</tspan><tspan x="80.334" y="0" fill="#FFFFFF" font-family="'OpenSans-Extrabold'" font-size="24"> </tspan><tspan x="87.509" y="0" fill="#FFFFFF" font-family="'OpenSans-Extrabold'" font-size="24">obstines</tspan><tspan x="193.587" y="0" fill="#FFFFFF" font-family="'OpenSans-Extrabold'" font-size="24"> </tspan><tspan x="200.761" y="0" fill="#FFFFFF" font-family="'OpenSans-Extrabold'" font-size="24">si</tspan><tspan x="221.363" y="0" fill="#FFFFFF" font-family="'OpenSans-Extrabold'" font-size="24"> </tspan><tspan x="228.537" y="0" fill="#FFFFFF" font-family="'OpenSans-Extrabold'" font-size="24">la</tspan><tspan x="251.248" y="0" fill="#FFFFFF" font-family="'OpenSans-Extrabold'" font-size="24"> </tspan><tspan x="258.422" y="0" fill="#FFFFFF" font-family="'OpenSans-Extrabold'" font-size="24">FORTUNA</tspan><tspan x="376.512" y="0" fill="#FFFFFF" font-family="'OpenSans-Extrabold'" font-size="24"> </tspan><tspan x="383.687" y="0" fill="#FFFFFF" font-family="'OpenSans-Extrabold'" font-size="24">se</tspan><tspan x="411.319" y="0" fill="#FFFFFF" font-family="'OpenSans-Extrabold'" font-size="24"> </tspan><tspan x="418.494" y="0" fill="#FFFFFF" font-family="'OpenSans-Extrabold'" font-size="24">te</tspan><tspan x="444.369" y="0" fill="#FFFFFF" font-family="'OpenSans-Extrabold'" font-size="24"> </tspan><tspan x="451.543" y="0" fill="#FFFFFF" font-family="'OpenSans-Extrabold'" font-size="24">resiste:</tspan><tspan x="543.852" y="0" fill="#FFFFFF" font-family="'OpenSans-Extrabold'" font-size="24"> </tspan><tspan x="551.026" y="0" fill="#FFFFFF" font-family="'OpenSans-Extrabold'" font-size="24">ella</tspan><tspan x="596.331" y="0" fill="#FFFFFF" font-family="'OpenSans-Extrabold'" font-size="24"> </tspan><tspan x="603.505" y="0" fill="#FFFFFF" font-family="'OpenSans-Extrabold'" font-size="24">no</tspan><tspan x="634.876" y="0" fill="#FFFFFF" font-family="'OpenSans-Extrabold'" font-size="24"> </tspan><tspan x="642.051" y="0" fill="#FFFFFF" font-family="'OpenSans-Extrabold'" font-size="24">simpatiza </tspan><tspan x="24.822" y="28.8" fill="#FFFFFF" font-family="'OpenSans-Extrabold'" font-size="24">con los que quieren dominarla. No quiere ser violentada.”</tspan><tspan x="294.74" y="57.601" fill="#FFFFFF" font-family="'OpenSans-Extrabold'" font-size="24">- Etienne Rey -</tspan></text>
</svg>
