<?xml version="1.0" encoding="utf-8"?>
<!-- Generator: Adobe Illustrator 16.0.0, SVG Export Plug-In . SVG Version: 6.00 Build 0)  -->
<!DOCTYPE svg PUBLIC "-//W3C//DTD SVG 1.1//EN" "http://www.w3.org/Graphics/SVG/1.1/DTD/svg11.dtd">
<svg version="1.1" id="Layer_1" xmlns="http://www.w3.org/2000/svg" xmlns:xlink="http://www.w3.org/1999/xlink" x="0px" y="0px"
	 width="900px" height="900px" viewBox="0 0 900 900" enable-background="new 0 0 900 900" xml:space="preserve">
<path fill="#99D8DB" d="M685.016,608.05c0-52.922-33.284-96.436-75.46-100.617v-78.687h-38.995l15.256-58.361
	c22.134-13.562,35.948-31.921,41.027-54.635c11.471-51.336-25.71-106.209-27.299-108.518l-11.417,6.791
	c9.037,17.755,10.961,32.266,5.706,43.136c-6.495,13.425-22.477,17.829-25.314,18.511c-2.439,0.103-10.237,0.674-18.778,3.727
	c-14.066,5.033-23.475,14.342-27.217,26.925c-6.91,23.249,7.547,41.858,14.456,49.11l-20.435,73.315h-32.389v-271.77H357.662
	v252.777l-36.773-107.405l-2.365,0.937l-69.66-62.457l-8.167,93.203l-2.367,0.937l31.395,93.778h-50.769V775.73
	c0,16.152,13.142,29.291,29.295,29.291h332.013c16.153,0,29.291-13.139,29.291-29.291v-67.062
	C651.73,704.486,685.016,660.973,685.016,608.05z M535.283,310.113c6.093-20.496,33.877-21.153,34.14-21.157l0.611-0.004
	l0.597-0.115c1.016-0.197,25.039-5.094,35.121-25.762c1.146-2.346,2.062-4.782,2.743-7.313c5.867,17.206,9.688,37.688,5.356,57.084
	c-4.21,18.835-15.751,34.229-34.312,45.802l-31.415-10.887C544.399,344.215,529.738,328.769,535.283,310.113z M548.767,362.07
	l23.076,7.995l-15.373,58.682h-25.841L548.767,362.07z M470.847,172.505v28.486h-49.936v15.529h49.936v28.486h-31.069v15.529h31.069
	v28.49h-31.069v15.529h31.069v28.49h-49.936v15.529h49.936v28.487h-31.069v15.528h31.069v36.157h-99.875v-256.24H470.847z
	 M259.8,268.51l44.886,40.24l-50.153,19.818L259.8,268.51z M255.602,342.453l57.803-22.833l37.45,109.126h-66.82L255.602,342.453z
	 M596.245,775.73c0,8.815-7.169,15.98-15.98,15.98H248.252c-8.812,0-15.985-7.165-15.985-15.98v-333.67h363.978v65.01v201.96V775.73
	z M609.556,695.309V520.793c34.83,4.271,62.149,41.78,62.149,87.257C671.705,653.527,644.386,691.036,609.556,695.309z"/>
</svg>
