<?xml version="1.0" encoding="utf-8"?>
<!-- Generator: Adobe Illustrator 16.0.0, SVG Export Plug-In . SVG Version: 6.00 Build 0)  -->
<!DOCTYPE svg PUBLIC "-//W3C//DTD SVG 1.1//EN" "http://www.w3.org/Graphics/SVG/1.1/DTD/svg11.dtd">
<svg version="1.1" id="Layer_1" xmlns="http://www.w3.org/2000/svg" xmlns:xlink="http://www.w3.org/1999/xlink" x="0px" y="0px"
	 width="900px" height="900px" viewBox="0 0 900 900" enable-background="new 0 0 900 900" xml:space="preserve">
<g>
	<path fill="#414042" d="M726.539,800.374c0.489-0.524,0.97-1.04,1.436-1.565c0.146-0.165,0.282-0.329,0.428-0.493
		c0.477-0.548,0.954-1.096,1.408-1.644c0.098-0.117,0.195-0.227,0.289-0.344c0.506-0.619,1.003-1.23,1.48-1.849
		c0.039-0.039,0.077-0.094,0.109-0.133c7.025-9.018,11.053-17.941,13.057-26.379c0.039-0.157,0.077-0.321,0.113-0.478
		c0.074-0.313,0.138-0.634,0.207-0.948c1.997-9.26,1.586-17.683,0.313-24.547c-2.72-14.646-9.777-24.994-11.506-27.357
		l-19.664-35.39l-70.481-126.855l0,0L536.165,358.771V204.358c9.224-9.953,13.111-19.695,11.553-28.986
		c-2.227-13.303-14.955-19.644-15.495-19.906l-1.455-0.712h-164.46l-1.453,0.712c-0.544,0.262-13.268,6.603-15.495,19.906
		c-1.558,9.292,2.329,19.033,11.554,28.986v154.429L165.439,714.52c-2.168,2.701-11.006,14.255-16.019,29.331
		c-7.855,23.623-2.697,44.172,14.916,59.436l1.98,1.714l0,0h281.141v-14.026h-275.81c-7.558-7.28-10.849-15.366-11.577-23.358
		c-0.125-1.408-0.176-2.818-0.156-4.219c0.007-0.463,0.023-0.932,0.046-1.395c0.963-19.96,15.738-37.901,16.681-39.021l0.446-0.532
		l85.741-156.03h186.323h97.917h3.832h84.578l86.355,155.443l0.274,0.478l0.316,0.415c1.077,1.4,25.566,34.121-6.285,68.219H449.625
		V805h272.394l2.055-2.058c0.681-0.682,1.346-1.362,1.988-2.051C726.226,800.718,726.378,800.546,726.539,800.374z M414.588,552.393
		c3.499-31.413,30.214-55.914,62.54-55.914s59.04,24.501,62.54,55.914h-35.421H414.588z M553.749,552.393
		c-3.558-39.155-36.556-69.943-76.621-69.943c-40.066,0-73.064,30.788-76.622,69.943H270.535L374.94,362.388v-163.76l-2.059-2.055
		c-7.162-7.167-10.52-13.671-9.702-18.802c0.724-4.556,4.642-7.667,6.642-8.986h157.431c2.02,1.33,5.921,4.442,6.646,8.986
		c0.813,5.131-2.54,11.636-9.706,18.802l-2.056,2.055v163.776l105.546,189.989H553.749z"/>
	<path fill="#414042" d="M469.503,353.574c-14.829,0-26.892,12.066-26.892,26.896c0,14.829,12.062,26.896,26.892,26.896
		c14.83,0,26.9-12.066,26.9-26.896C496.403,365.64,484.333,353.574,469.503,353.574z M469.503,393.339
		c-7.095,0-12.864-5.777-12.864-12.869c0-7.096,5.77-12.869,12.864-12.869c7.097,0,12.873,5.773,12.873,12.869
		C482.376,387.562,476.6,393.339,469.503,393.339z"/>
	<path fill="#414042" d="M409.86,403.66c-20.102,0-36.454,16.352-36.454,36.454c0,20.098,16.353,36.45,36.454,36.45
		c20.098,0,36.454-16.353,36.454-36.45C446.314,420.011,429.958,403.66,409.86,403.66z M409.86,462.536
		c-12.368,0-22.427-10.059-22.427-22.423c0-12.365,10.059-22.426,22.427-22.426c12.364,0,22.426,10.061,22.426,22.426
		C432.287,452.478,422.225,462.536,409.86,462.536z"/>
</g>
</svg>
