<?xml version="1.0" encoding="utf-8"?>
<!-- Generator: Adobe Illustrator 16.0.0, SVG Export Plug-In . SVG Version: 6.00 Build 0)  -->
<!DOCTYPE svg PUBLIC "-//W3C//DTD SVG 1.1//EN" "http://www.w3.org/Graphics/SVG/1.1/DTD/svg11.dtd">
<svg version="1.1" id="Layer_1" xmlns="http://www.w3.org/2000/svg" xmlns:xlink="http://www.w3.org/1999/xlink" x="0px" y="0px"
	 width="900px" height="900px" viewBox="0 0 900 900" enable-background="new 0 0 900 900" xml:space="preserve">
<path fill="#F38383" d="M504.289,808.909H35.219c-18.271,0-33.136-13.964-33.136-31.132V344.791
	c0-17.166,14.864-31.131,33.136-31.131h469.07c18.271,0,33.136,13.965,33.136,31.131v432.986
	C537.425,794.945,522.561,808.909,504.289,808.909z M35.219,327.804c-10.472,0-18.992,7.621-18.992,16.987v432.986
	c0,9.367,8.52,16.988,18.992,16.988h469.07c10.472,0,18.992-7.621,18.992-16.988V344.791c0-9.367-8.521-16.987-18.992-16.987H35.219
	z"/>
<path fill="#F38383" d="M129.254,648.54c-48.114,0-87.256-39.144-87.256-87.256s39.143-87.255,87.256-87.255
	c48.113,0,87.256,39.143,87.256,87.255S177.367,648.54,129.254,648.54z M129.254,488.172c-40.315,0-73.113,32.798-73.113,73.112
	s32.798,73.112,73.113,73.112c40.314,0,73.112-32.798,73.112-73.112S169.568,488.172,129.254,488.172z"/>
<path fill="#F38383" d="M369.983,648.54c-48.113,0-87.256-39.144-87.256-87.256s39.143-87.255,87.256-87.255
	c48.114,0,87.258,39.143,87.258,87.255S418.098,648.54,369.983,648.54z M369.983,488.172c-40.314,0-73.113,32.798-73.113,73.112
	s32.798,73.112,73.113,73.112s73.112-32.798,73.112-73.112S410.298,488.172,369.983,488.172z"/>
<rect x="129.254" y="474.029" fill="#F38383" width="240.729" height="14.143"/>
<path fill="#F38383" d="M870.954,802.479c-2.854,0-5.784-0.403-8.707-1.201L595.66,728.572
	c-18.104-4.938-32.286-23.505-32.286-42.271V480.008c0-18.399,13.339-38.27,30.368-45.236l268.787-109.959
	c3.994-1.633,7.967-2.461,11.812-2.461c14.08,0,23.914,10.874,23.914,26.444v424.979
	C898.255,790.407,886.774,802.479,870.954,802.479z M874.341,336.495c-2,0-4.171,0.474-6.456,1.409L599.099,447.862
	c-11.699,4.787-21.581,19.507-21.581,32.146v206.293c0,12.286,10.012,25.395,21.864,28.625l266.586,72.705
	c1.71,0.467,3.39,0.704,4.986,0.704c7.991,0,13.157-5.716,13.157-14.561V348.796C884.111,341.094,880.46,336.495,874.341,336.495z"
	/>
<path fill="#F38383" d="M129.431,588.641c-14.953,0-27.118-12.166-27.118-27.119s12.165-27.118,27.118-27.118
	c14.952,0,27.118,12.165,27.118,27.118S144.383,588.641,129.431,588.641z M129.431,548.547c-7.154,0-12.974,5.82-12.974,12.975
	s5.82,12.975,12.974,12.975s12.974-5.82,12.974-12.975S136.585,548.547,129.431,548.547z"/>
<path fill="#F38383" d="M369.983,588.641c-14.953,0-27.117-12.166-27.117-27.119s12.164-27.118,27.117-27.118
	c14.953,0,27.119,12.165,27.119,27.118S384.936,588.641,369.983,588.641z M369.983,548.547c-7.153,0-12.974,5.82-12.974,12.975
	s5.82,12.975,12.974,12.975c7.155,0,12.975-5.82,12.975-12.975S377.138,548.547,369.983,548.547z"/>
</svg>
