<?xml version="1.0" encoding="utf-8"?>
<!-- Generator: Adobe Illustrator 16.0.0, SVG Export Plug-In . SVG Version: 6.00 Build 0)  -->
<!DOCTYPE svg PUBLIC "-//W3C//DTD SVG 1.1//EN" "http://www.w3.org/Graphics/SVG/1.1/DTD/svg11.dtd">
<svg version="1.1" id="Layer_1" xmlns="http://www.w3.org/2000/svg" xmlns:xlink="http://www.w3.org/1999/xlink" x="0px" y="0px"
	 width="900px" height="900px" viewBox="0 0 900 900" enable-background="new 0 0 900 900" xml:space="preserve">
<g>
	<path fill="#414042" d="M864.584,93.693H36.412c-18.859,0-34.204,15.352-34.204,34.208v475.756
		c0,18.865,15.345,34.208,34.204,34.208h383.006v73.073C353.904,713.086,293.122,722,245.739,736.58
		c-58.456,17.986-89.351,42.095-89.351,69.726h15.541c0-19.263,29.3-39.775,78.382-54.879
		c53.361-16.411,124.453-25.456,200.185-25.456c75.734,0,146.827,9.045,200.194,25.456c49.072,15.104,78.377,35.616,78.377,54.879
		h15.537c0-27.631-30.893-51.739-89.349-69.726C607.869,722,547.09,713.086,481.578,710.939v-73.073h383.006
		c18.865,0,34.208-15.343,34.208-34.208V127.902C898.792,109.045,883.449,93.693,864.584,93.693z M466.037,710.556
		c-5.156-0.081-10.34-0.126-15.542-0.126s-10.38,0.045-15.541,0.126v-72.689h31.083V710.556z M883.251,603.658
		c0,10.295-8.373,18.667-18.667,18.667H36.412c-10.29,0-18.663-8.372-18.663-18.667V127.902c0-10.29,8.373-18.667,18.663-18.667
		h828.172c10.294,0,18.667,8.377,18.667,18.667V603.658z"/>
	<path fill="#414042" d="M820.536,137.75H80.469c-18.864,0-34.208,15.343-34.208,34.208V515.55c0,18.87,15.345,34.208,34.208,34.208
		h740.067c18.856,0,34.204-15.338,34.204-34.208V171.958C854.74,153.093,839.393,137.75,820.536,137.75z M839.199,515.55
		c0,10.299-8.369,18.672-18.663,18.672H80.469c-10.295,0-18.667-8.373-18.667-18.672V171.958c0-10.29,8.373-18.667,18.667-18.667
		h740.067c10.294,0,18.663,8.377,18.663,18.667V515.55z"/>
	<circle fill="#414042" cx="450.5" cy="586.04" r="10.685"/>
</g>
</svg>
